# xmcd CD database file
#
# Track frame offsets:
#	183
#	12383
#	39010
#	41128
#	85590
#	106880
#	132528
#	147450
#	151575
#	158185
#	163628
#	178523
#
# Disc length: 2607 seconds
#
# Revision: 0
# Processed by: cddbd v1.5.2PL0 Copyright (c) Steve Scherf et al.
# Submitted via: CDex 1.51
#
DISCID=8e0a2d0c
DTITLE=Orchestr Gustava Broma - Missa Jazz
DYEAR=1990
DGENRE=Jazz
TTITLE0=Preludium
TTITLE1=Introitus
TTITLE2=Intermezzo
TTITLE3=Kyrie
TTITLE4=Glorie
TTITLE5=Graduale
TTITLE6=Credo
TTITLE7=Sanctus
TTITLE8=Pater noster
TTITLE9=Agnus dei
TTITLE10=Comunio
TTITLE11=Postludium
EXTD=YEAR: 1990
EXTT0=
EXTT1=
EXTT2=
EXTT3=
EXTT4=
EXTT5=
EXTT6=
EXTT7=
EXTT8=
EXTT9=
EXTT10=
EXTT11=
PLAYORDER=
